Coordinates
version=1
nRows=11
nColumns=63
inDegrees=yes

Units are S.I. units (second, meters, Newtons, ...)
If the header above contains a line with 'inDegrees', this indicates whether rotational values are in degrees (yes) or radians (no).

endheader
time	pelvis_tilt	pelvis_list	pelvis_rotation	pelvis_tx	pelvis_ty	pelvis_tz	hip_flexion_r	hip_adduction_r	hip_rotation_r	knee_angle_r	knee_angle_r_beta	ankle_angle_r	subtalar_angle_r	mtp_angle_r	hip_flexion_l	hip_adduction_l	hip_rotation_l	knee_angle_l	knee_angle_l_beta	ankle_angle_l	subtalar_angle_l	mtp_angle_l	L5_S1_Flex_Ext	L5_S1_Lat_Bending	L5_S1_axial_rotation	L4_L5_Flex_Ext	L4_L5_Lat_Bending	L4_L5_axial_rotation	L3_L4_Flex_Ext	L3_L4_Lat_Bending	L3_L4_axial_rotation	L2_L3_Flex_Ext	L2_L3_Lat_Bending	L2_L3_axial_rotation	L1_L2_Flex_Ext	L1_L2_Lat_Bending	L1_L2_axial_rotation	L1_T12_Flex_Ext	L1_T12_Lat_Bending	L1_T12_axial_rotation	Abs_r3	Abs_r2	Abs_r1	Abs_t1	Abs_t2	neck_flexion	neck_bending	neck_rotation	arm_flex_r	arm_add_r	arm_rot_r	elbow_flex_r	pro_sup_r	wrist_flex_r	wrist_dev_r	arm_flex_l	arm_add_l	arm_rot_l	elbow_flex_l	pro_sup_l	wrist_flex_l	wrist_dev_l
      0.00000000	      5.22621709	     -2.68064583	    105.23319576	      0.19177112	      0.91651110	      0.43689110	     -3.22773814	      5.42779967	    -22.07589822	      9.15099078	      0.15971492	     28.79225047	      8.13854042	      0.00000000	     -1.63544086	     -5.38522696	     -1.75039428	      8.48147748	      0.14802971	     29.46244344	     12.12534346	      0.00000000	      0.19841267	      0.63967978	     -2.93242447	      0.36847217	      0.85077410	     -3.11570100	      0.32597218	      1.55531741	     -3.11570100	      0.22676584	      1.55531741	     -2.56587142	      0.18424601	      1.30443500	     -2.38259489	      0.11337300	      0.99086398	     -2.19931836	      1.41724187	      7.23618558	    -16.30926520	      0.00000000	      0.00000000	     18.44850438	      0.91981194	      0.34269392	     17.18193126	    -11.02121821	     76.74143328	     50.62278522	     72.02302101	      0.18363494	      4.64996724	     12.43878139	     -3.77075083	     56.99163549	     47.60081569	     61.99347337	      8.32943726	      4.36451385
      0.01666667	      5.16757854	     -2.69755513	    104.79348951	      0.19231710	      0.91627214	      0.43721446	     -2.94438510	      5.15966490	    -21.31180521	      9.79327713	      0.17092493	     30.21979495	      8.67473629	      0.00000000	     -1.52208714	     -5.30060527	     -1.92303287	      9.22171633	      0.16094931	     30.21179059	     11.25783606	      0.00000000	      0.17573271	      0.63878424	     -2.80265408	      0.32635321	      0.84958304	     -2.97781996	      0.28871126	      1.55314001	     -2.97781996	      0.20084491	      1.55314001	     -2.45232232	      0.16318539	      1.30260883	     -2.27715644	      0.10041367	      0.98947679	     -2.10199056	      1.25524114	      7.22605511	    -15.58752121	      0.00000000	      0.00000000	     18.79031849	      1.11076867	      0.72709898	     17.91665483	    -11.23469722	     77.24032037	     50.23480970	     70.56519998	      2.49808509	      4.74982073	     13.44576032	     -3.29956125	     57.76021626	     46.85714517	     62.91741456	      8.25201798	      4.83072697
      0.03333333	      5.09583348	     -2.75512742	    104.03815357	      0.19301876	      0.91606758	      0.43642732	     -2.79370952	      4.79652910	    -21.71430219	     10.42567877	      0.18196242	     31.26713014	     10.61331408	      0.00000000	     -2.08669496	     -4.79586682	      1.93774373	      8.45687437	      0.14760030	     29.29139968	      4.50659664	      0.00000000	      0.17748847	      0.63713082	     -2.70081914	      0.32961384	      0.84738400	     -2.86962034	      0.29159581	      1.54911988	     -2.86962034	      0.20285157	      1.54911988	     -2.36321675	      0.16481579	      1.29923718	     -2.19441555	      0.10141691	      0.98691565	     -2.02561435	      1.26778239	      7.20735130	    -15.02114581	      0.00000000	      0.00000000	     18.88412015	      1.17087693	      1.28221358	     18.65064350	    -11.44555461	     81.68422308	     50.88673157	     28.08393745	      1.95638689	      9.20252625	     13.63492148	     -3.07288188	     57.66633052	     46.49035145	     63.91340165	      8.45166191	      4.64313019
      0.05000000	      4.99325361	     -2.97809302	    104.02483143	      0.19306954	      0.91547844	      0.43592192	     -2.62652534	      4.62560982	    -21.18194520	     10.66266789	      0.18609866	     31.51522617	     10.09354508	      0.00000000	     -1.85107604	     -4.61630985	      1.91846456	      8.72879929	      0.15234629	     29.74770008	      4.31919555	      0.00000000	      0.21463312	      0.61993918	     -2.71942331	      0.39859518	      0.82451910	     -2.88938727	      0.35262076	      1.50732011	     -2.88938727	      0.24530420	      1.50732011	     -2.37949540	      0.19930832	      1.26417997	     -2.20953144	      0.12264137	      0.96028578	     -2.03956748	      1.53310295	      7.01287594	    -15.12461663	      0.00000000	      0.00000000	     18.81365369	      1.17908253	      1.35809610	     18.58155417	    -11.42773257	     81.75683576	     50.81472982	     28.23703626	      1.92490632	      9.22088763	     13.70097503	     -3.02462950	     57.85708488	     46.30661408	     63.75389932	      8.36344163	      4.80149028
      0.06666667	      4.76185797	     -2.77093946	    103.08012033	      0.19383227	      0.91548717	      0.43565393	     -2.74116483	      4.21245761	    -20.52965966	     11.40881809	      0.19912144	     31.83585201	     10.50400265	      0.00000000	     -2.53682357	     -4.31576734	      1.51391937	      8.22425627	      0.14354035	     29.55545681	      3.81665840	      0.00000000	      0.15858404	      0.61110333	     -2.55488668	      0.29450642	      0.81276743	     -2.71456710	      0.26053772	      1.48583665	     -2.71456710	      0.18124570	      1.48583665	     -2.23552585	      0.14726114	      1.24616192	     -2.07584543	      0.09061492	      0.94659906	     -1.91616501	      1.13274994	      6.91292314	    -14.20951326	      0.00000000	      0.00000000	     19.07501308	      1.44391606	      2.20040487	     18.44956867	    -11.50294165	     80.94154526	     50.92626957	     27.87837903	      2.33164789	     11.12409927	     14.25970801	     -3.04607703	     58.85512088	     46.22400286	     62.13948511	      8.76454352	      5.71059672
      0.08333333	      4.73870354	     -2.79232228	    102.95944371	      0.19368062	      0.91516433	      0.43511027	     -2.86040565	      4.14665102	    -20.53518242	     11.51450646	      0.20096605	     31.69277282	     10.49080165	      0.00000000	     -2.58946701	     -4.24961183	      1.54820563	      8.18438758	      0.14284451	     29.71434659	      3.81970450	      0.00000000	      0.16337868	      0.61008763	     -2.57029936	      0.30341055	      0.81141655	     -2.73094307	      0.26841484	      1.48336707	     -2.73094307	      0.18672550	      1.48336707	     -2.24901194	      0.15171344	      1.24409070	     -2.08836823	      0.09335458	      0.94502575	     -1.92772452	      1.16699759	      6.90143334	    -14.29523393	      0.00000000	      0.00000000	     19.12677423	      1.43938421	      2.22325847	     18.28637042	    -11.50196047	     80.97259228	     50.95468038	     27.90036159	      2.31973423	     11.15996028	     14.16757216	     -3.05088659	     58.94624458	     46.18127312	     62.09278358	      8.77443096	      5.75814991
      0.10000000	      4.39977669	     -2.67925434	    102.54445524	      0.19406367	      0.91506136	      0.43447895	     -3.00978606	      3.84501214	    -18.98662027	     11.84362745	      0.20671029	     31.61368307	      8.83302506	      0.00000000	     -3.20020973	     -3.86143816	      1.65300694	      7.41476398	      0.12941204	     29.68480181	      3.69789137	      0.00000000	      0.14603407	      0.57501749	     -2.43427124	      0.27119988	      0.76477326	     -2.58641319	      0.23991938	      1.39809753	     -2.58641319	      0.16690234	      1.39809753	     -2.12998733	      0.13560724	      1.17257567	     -1.97784538	      0.08344387	      0.89070209	     -1.82570343	      1.04310679	      6.50471287	    -13.53868635	      0.00000000	      0.00000000	     19.00295506	      1.50577646	      2.28337840	     17.26655998	    -11.54115818	     78.28577581	     51.07074986	     35.79835109	      2.51692304	     12.50552276	     15.24670621	     -3.43318424	     62.70209451	     46.28075641	     55.71763234	      7.77624473	      5.86660828
      0.11666667	      4.32853307	     -2.64519388	    102.43594990	      0.19373825	      0.91490686	      0.43390704	     -3.14782137	      3.73501627	    -18.83305245	     11.85818607	      0.20696439	     31.69399122	      8.80249210	      0.00000000	     -3.43292484	     -3.75639145	      1.78832103	      7.07703051	      0.12351748	     29.90897115	      3.90108780	      0.00000000	      0.14837293	      0.57216392	     -2.43397877	      0.27554337	      0.76097801	     -2.58610244	      0.24376188	      1.39115935	     -2.58610244	      0.16957542	      1.39115935	     -2.12973142	      0.13777910	      1.16675666	     -1.97760775	      0.08478029	      0.88628191	     -1.82548408	      1.05981299	      6.47243268	    -13.53705973	      0.00000000	      0.00000000	     18.85591230	      1.44567706	      2.38083973	     17.10452603	    -11.59472284	     78.37324503	     51.20100648	     36.20993377	      2.43024803	     12.61643782	     15.06311866	     -3.42847879	     62.64915775	     46.34592971	     55.44365746	      7.80836919	      6.03194348
      0.13333333	      4.32877974	     -2.68582678	    102.42236667	      0.19349813	      0.91478941	      0.43373259	     -3.13319816	      3.70134398	    -18.71858384	     11.82765162	      0.20643146	     31.82945422	      8.77821184	      0.00000000	     -3.43657903	     -3.71652771	      1.77357672	      6.96538496	      0.12156890	     30.07099354	      3.91386444	      0.00000000	      0.15457470	      0.57361422	     -2.44004397	      0.28706067	      0.76290691	     -2.59254671	      0.25395077	      1.39468561	     -2.59254671	      0.17666342	      1.39468561	     -2.13503847	      0.14353806	      1.16971411	     -1.98253572	      0.08832398	      0.88852842	     -1.83003297	      1.10411160	      6.48883874	    -13.57079253	      0.00000000	      0.00000000	     18.96209321	      1.44088591	      2.38320717	     16.95607304	    -11.59542838	     78.46514856	     51.20714575	     36.32951045	      2.38975413	     12.62364948	     14.95313690	     -3.40620081	     62.69233401	     46.37604514	     55.35959695	      7.76500192	      6.06453065
      0.15000000	      4.28368626	     -2.37584564	    101.89727078	      0.19353199	      0.91513823	      0.43202814	     -3.68716489	      3.94960642	    -15.77322302	     11.30228080	      0.19726201	     31.52076592	      5.74874463	      0.00000000	     -4.60622562	     -3.59851630	      3.34827381	      5.51662236	      0.09628322	     29.14204962	      1.61732225	      0.00000000	      0.13292753	      0.58219023	     -2.33951769	      0.24685971	      0.77431301	     -2.48573754	      0.21838663	      1.41553732	     -2.48573754	      0.15192287	      1.41553732	     -2.04707797	      0.12343650	      1.18720232	     -1.90085812	      0.07595479	      0.90181267	     -1.75463826	      0.94948802	      6.58585232	    -13.01169551	      0.00000000	      0.00000000	     18.52257776	      1.28312977	      2.61992910	     16.56150706	    -11.68143788	     77.09312995	     50.96305605	     52.49916801	      3.87631340	     11.13424632	     14.87673229	     -3.32533100	     63.39689145	     46.43262980	     53.45280482	      7.32817029	      6.23927936
      0.16666667	      4.25150873	     -2.33215950	    101.91236520	      0.19310962	      0.91517565	      0.43136425	     -3.87104723	      3.93283817	    -15.75927567	     11.01993222	      0.19233410	     31.74000859	      5.94487724	      0.00000000	     -4.91042006	     -3.57131411	      3.38555872	      5.08819904	      0.08880583	     28.95243888	      1.61073024	      0.00000000	      0.13715631	      0.58147315	     -2.33990247	      0.25471298	      0.77335929	     -2.48614638	      0.22533410	      1.41379382	     -2.48614638	      0.15675594	      1.41379382	     -2.04741466	      0.12736335	      1.18574005	     -1.90117076	      0.07837111	      0.90070191	     -1.75492685	      0.97969379	      6.57774056	    -13.01383558	      0.00000000	      0.00000000	     18.52619455	      1.27238991	      2.54756398	     16.38739808	    -11.69249541	     77.20900780	     50.94317627	     52.60772934	      3.88362289	     11.06229222	     14.72710562	     -3.25746265	     63.55627287	     46.39029711	     53.68821326	      7.19860078	      6.07815827
